# xmcd
#
# Track frame offsets:
#	150
#	13932
#	29678
#	49459
#	63319
#	77375
#	92628
#	103387
#	118135
#	136793
#	153138
#	169184
#
# Disc length: 2473 seconds
#
# Revision: 1
# Processed by: cddbd v1.4PL0 Copyright (c) Steve Scherf et al.
# Submitted via: audiograbber 1.80.04
#
DISCID=9d09a70c
DTITLE=Jon Sheppard - Wayfaring Stranger
DYEAR=2002
DGENRE=Country
TTITLE0=What Am I Gonna Do?
TTITLE1=No Longer One
TTITLE2=Wayfaring Stranger
TTITLE3=Papa Do Wrinkles Hurt?
TTITLE4=Mama Left The Light On
TTITLE5=Bill Payers Blues
TTITLE6=Get Back
TTITLE7=Chase The Night Away
TTITLE8=Life Goes On
TTITLE9=I Can Give You Love
TTITLE10=Loving You, Loving Me
TTITLE11=Crossroads
EXTD=First Release by Jon Sheppard of Austin, TX
EXTT0=
EXTT1=
EXTT2=
EXTT3=
EXTT4=
EXTT5=
EXTT6=
EXTT7=
EXTT8=
EXTT9=
EXTT10=
EXTT11=
PLAYORDER=
